<svg id="visual" viewBox="0 0 1366 768" width="1366" height="768" xmlns="http://www.w3.org/2000/svg" xmlns:xlink="http://www.w3.org/1999/xlink" version="1.1"><rect x="0" y="0" width="1366" height="768" fill="#e0e8ff"></rect><path d="M0 696L45.5 695.2C91 694.3 182 692.7 273 681.5C364 670.3 455 649.7 546.2 654C637.3 658.3 728.7 687.7 819.8 700C911 712.3 1002 707.7 1093 701.2C1184 694.7 1275 686.3 1320.5 682.2L1366 678L1366 769L1320.5 769C1275 769 1184 769 1093 769C1002 769 911 769 819.8 769C728.7 769 637.3 769 546.2 769C455 769 364 769 273 769C182 769 91 769 45.5 769L0 769Z" fill="#8faaf4"></path><path d="M0 693L45.5 697.3C91 701.7 182 710.3 273 707.8C364 705.3 455 691.7 546.2 680.3C637.3 669 728.7 660 819.8 663.5C911 667 1002 683 1093 692.8C1184 702.7 1275 706.3 1320.5 708.2L1366 710L1366 769L1320.5 769C1275 769 1184 769 1093 769C1002 769 911 769 819.8 769C728.7 769 637.3 769 546.2 769C455 769 364 769 273 769C182 769 91 769 45.5 769L0 769Z" fill="#a1b7f7"></path><path d="M0 676L45.5 677.5C91 679 182 682 273 689.2C364 696.3 455 707.7 546.2 707.8C637.3 708 728.7 697 819.8 689.7C911 682.3 1002 678.7 1093 685.8C1184 693 1275 711 1320.5 720L1366 729L1366 769L1320.5 769C1275 769 1184 769 1093 769C1002 769 911 769 819.8 769C728.7 769 637.3 769 546.2 769C455 769 364 769 273 769C182 769 91 769 45.5 769L0 769Z" fill="#b2c5fa"></path><path d="M0 726L45.5 723.5C91 721 182 716 273 713C364 710 455 709 546.2 715.2C637.3 721.3 728.7 734.7 819.8 733.8C911 733 1002 718 1093 712.8C1184 707.7 1275 712.3 1320.5 714.7L1366 717L1366 769L1320.5 769C1275 769 1184 769 1093 769C1002 769 911 769 819.8 769C728.7 769 637.3 769 546.2 769C455 769 364 769 273 769C182 769 91 769 45.5 769L0 769Z" fill="#c4d2fd"></path><path d="M0 758L45.5 753.7C91 749.3 182 740.7 273 735.7C364 730.7 455 729.3 546.2 731C637.3 732.7 728.7 737.3 819.8 740C911 742.7 1002 743.3 1093 745.3C1184 747.3 1275 750.7 1320.5 752.3L1366 754L1366 769L1320.5 769C1275 769 1184 769 1093 769C1002 769 911 769 819.8 769C728.7 769 637.3 769 546.2 769C455 769 364 769 273 769C182 769 91 769 45.5 769L0 769Z" fill="#d5e0ff"></path></svg>