<svg id="visual" viewBox="0 0 450 220" width="450" height="220" xmlns="http://www.w3.org/2000/svg" xmlns:xlink="http://www.w3.org/1999/xlink" version="1.1"><rect width="450" height="220" fill="#001829"></rect><g><g transform="translate(258 174)"><path d="M0 -41.7L36.2 -20.9L36.2 20.9L0 41.7L-36.2 20.9L-36.2 -20.9Z" fill="none" stroke="#297EA6" stroke-width="2"></path></g><g transform="translate(173 77)"><path d="M0 -20L17.3 -10L17.3 10L0 20L-17.3 10L-17.3 -10Z" fill="none" stroke="#297EA6" stroke-width="2"></path></g><g transform="translate(68 53)"><path d="M0 -38L32.9 -19L32.9 19L0 38L-32.9 19L-32.9 -19Z" stroke="#297EA6" fill="none" stroke-width="2"></path></g><g transform="translate(418 111)"><path d="M0 -8L6.9 -4L6.9 4L0 8L-6.9 4L-6.9 -4Z" stroke="#297EA6" fill="none" stroke-width="2"></path></g><g transform="translate(148 158)"><path d="M0 -19L16.5 -9.5L16.5 9.5L0 19L-16.5 9.5L-16.5 -9.5Z" stroke="#297EA6" fill="none" stroke-width="2"></path></g><g transform="translate(59 178)"><path d="M0 -32L27.7 -16L27.7 16L0 32L-27.7 16L-27.7 -16Z" stroke="#297EA6" fill="none" stroke-width="2"></path></g><g transform="translate(332 110)"><path d="M0 -16L13.9 -8L13.9 8L0 16L-13.9 8L-13.9 -8Z" stroke="#297EA6" fill="none" stroke-width="2"></path></g><g transform="translate(366 25)"><path d="M0 -26L22.5 -13L22.5 13L0 26L-22.5 13L-22.5 -13Z" stroke="#297EA6" fill="none" stroke-width="2"></path></g><g transform="translate(330 218)"><path d="M0 -40L34.6 -20L34.6 20L0 40L-34.6 20L-34.6 -20Z" stroke="#297EA6" fill="none" stroke-width="2"></path></g><g transform="translate(243 15)"><path d="M0 -16L13.9 -8L13.9 8L0 16L-13.9 8L-13.9 -8Z" stroke="#297EA6" fill="none" stroke-width="2"></path></g><g transform="translate(430 199)"><path d="M0 -37L32 -18.5L32 18.5L0 37L-32 18.5L-32 -18.5Z" stroke="#297EA6" fill="none" stroke-width="2"></path></g></g></svg>